<?xml version="1.0" encoding="UTF-8"?> <svg xmlns="http://www.w3.org/2000/svg" viewBox="0 0 500 160"> <title>zerofox-logo-black</title> <rect width="500" height="160" style="fill: #f8f8f8"></rect> <path d="M377.7,58.8A21.2,21.2,0,1,0,398.9,80,21.21,21.21,0,0,0,377.7,58.8Zm0,35.7A14.5,14.5,0,1,1,392.2,80,14.51,14.51,0,0,1,377.7,94.5Z" style="fill: #131e29"></path> <path d="M164.1,65.3H140.2V58.7h37.3L151.7,94.4h23.6V101h-37Z" style="fill: #131e29"></path> <path d="M186.5,58.7h31.7v6.7H193.9v11h21.2V83H194V94.4h24.3v6.7H186.6C186.5,101,186.5,58.7,186.5,58.7Z" style="fill: #131e29"></path> <path d="M227.5,58.7h18.9c5.3,0,9.5,1.6,12.2,4.2a12.86,12.86,0,0,1,3.5,9.1v.1c0,7-4.2,11.1-10.1,12.8l11.4,16h-8.8L244.2,86.1H235V101h-7.4l-.1-42.3Zm18.4,21c5.3,0,8.7-2.8,8.7-7.1v-.1c0-4.5-3.3-7-8.8-7H235V79.7Z" style="fill: #131e29"></path> <path d="M319.5,58.7H351v6.8H326.9V77h21.4v6.8H326.9V101h-7.4V58.7Z" style="fill: #131e29"></path> <path d="M416.7,79.5,401.9,58.7h8.8l10.4,14.8,10.7-14.8h8.5L425.4,79.5,440.9,101h-8.8L421,85.6,409.8,101h-8.5Z" style="fill: #131e29"></path> <path d="M456,67.9a4.15,4.15,0,0,1-1.6-.3,5.67,5.67,0,0,1-1.3-.8,3.53,3.53,0,0,1-.8-1.3,4.42,4.42,0,0,1,0-3.2,5.67,5.67,0,0,1,.8-1.3,3.53,3.53,0,0,1,1.3-.8,4.42,4.42,0,0,1,3.2,0,5.67,5.67,0,0,1,1.3.8,3.53,3.53,0,0,1,.8,1.3,4.42,4.42,0,0,1,0,3.2,5.67,5.67,0,0,1-.8,1.3,3.53,3.53,0,0,1-1.3.8A4.15,4.15,0,0,1,456,67.9Zm0-.3a3.19,3.19,0,0,0,1.4-.3,7.46,7.46,0,0,0,1.2-.7,3.6,3.6,0,0,0,.8-1.2,3.65,3.65,0,0,0,.3-1.5,3.19,3.19,0,0,0-.3-1.4,4.18,4.18,0,0,0-.8-1.2,3.6,3.6,0,0,0-1.2-.8,3.34,3.34,0,0,0-1.5-.3,4,4,0,0,0-1.5.3,4.18,4.18,0,0,0-1.2.8,3.6,3.6,0,0,0-.8,1.2,3.19,3.19,0,0,0-.3,1.4,4,4,0,0,0,.3,1.5,4.18,4.18,0,0,0,.8,1.2,3.6,3.6,0,0,0,1.2.8A10,10,0,0,0,456,67.6Zm-1.7-6.1h2.1a1.27,1.27,0,0,1,.6.1,1.76,1.76,0,0,1,.5.4,2.19,2.19,0,0,1,.3.5,1.27,1.27,0,0,1,.1.6.75.75,0,0,1-.1.5c-.1.2-.1.3-.2.5a1.38,1.38,0,0,1-.4.3c-.1.1-.3.1-.5.2l1.2,2h-.5l-1.2-1.9h-1.4v1.9h-.4V61.5Zm2.1,2.7a.78.78,0,0,0,.7-.3,1.22,1.22,0,0,0,0-1.6,1,1,0,0,0-.8-.3h-1.6v2.3h1.7Z" style="fill: #131e29"></path> <path d="M278.9,89.3A14.48,14.48,0,0,1,290,65.5a16.16,16.16,0,0,1,5.4,1l4-5.5a21,21,0,0,0-9.4-2.2,21.21,21.21,0,0,0-15.1,36.1Z" style="fill: #131e29"></path> <path d="M305.1,65.1l-4,5.6A14.48,14.48,0,0,1,290,94.5a16.16,16.16,0,0,1-5.4-1l-4,5.5a21,21,0,0,0,9.4,2.2,21.21,21.21,0,0,0,15.1-36.1Z" style="fill: #131e29"></path> <polygon points="83.5 71.9 92.7 65.8 92.7 81.1 96.1 84.6 81.3 99 78.4 99 78.4 71.9 83.5 71.9" style="fill: #131e29"></polygon> <polygon points="73.3 71.9 64.1 65.8 64.1 81.1 60.7 84.6 75.5 99 78.4 99 78.4 71.9 73.3 71.9" style="fill: #131e29"></polygon> <path d="M52.8,108.6l4.9-6.9A30,30,0,0,1,92.4,53.5l4.9-6.9a37.82,37.82,0,0,0-18.9-5A38.41,38.41,0,0,0,40,80,38,38,0,0,0,52.8,108.6Z" style="fill: #131e29"></path> <path d="M104,51.4l-5,6.9a30,30,0,0,1-34.7,48.2l-4.9,6.9a37.82,37.82,0,0,0,18.9,5A38.41,38.41,0,0,0,116.7,80,37.92,37.92,0,0,0,104,51.4Z" style="fill: #131e29"></path> </svg> 
