<?xml version="1.0" encoding="utf-8"?>
<!-- Generator: Adobe Illustrator 25.0.1, SVG Export Plug-In . SVG Version: 6.00 Build 0)  -->
<svg version="1.1" id="Layer_1" xmlns="http://www.w3.org/2000/svg" xmlns:xlink="http://www.w3.org/1999/xlink" x="0px" y="0px"
	 viewBox="0 0 500 160" style="enable-background:new 0 0 500 160;" xml:space="preserve">
<style type="text/css">
	.st0{display:none;fill:none;}
	.st1{fill:#FFFFFF;}
	.st2{fill:none;}
	.st3{display:none;}
	.st4{display:inline;fill:#273239;}
	.st5{display:none;fill:#FFFFFF;}
	.st6{font-family:'OpenSans';}
	.st7{font-size:24px;}
	.st8{letter-spacing:4;}
</style>
<rect class="st0" width="500" height="160"/>
<g>
	<g>
		<polygon class="st1" points="84.2,72.2 94.1,65.8 94.1,82.2 97.8,85.9 81.9,101.4 78.8,101.4 78.8,72.2 		"/>
		<polygon class="st1" points="73.3,72.2 63.4,65.8 63.4,82.2 59.8,85.9 75.7,101.4 78.8,101.4 78.8,72.2 		"/>
	</g>
	<g>
		<path class="st1" d="M51.3,111.7l5.3-7.4c-12.9-12.2-13.5-32.6-1.2-45.5c9.9-10.5,25.7-13.1,38.5-6.3l5.3-7.4
			c-19.8-11.3-45-4.3-56.2,15.5C33.3,77.5,36.8,98.8,51.3,111.7z"/>
		<path class="st1" d="M106.2,50.2l-5.2,7.4c12.9,12.3,13.4,32.6,1.2,45.6c-9.9,10.5-25.6,13-38.4,6.3l-5.3,7.4
			c19.8,11.3,45,4.3,56.2-15.5C124.3,84.5,120.8,63.2,106.2,50.2L106.2,50.2z"/>
	</g>
</g>
<path class="st1" d="M379,52.7c-11.5,0-20.9,9.4-20.9,20.9s9.4,20.9,20.9,20.9c11.5,0,20.9-9.4,20.9-20.9
	C399.9,62.1,390.6,52.7,379,52.7C379,52.7,379,52.7,379,52.7z M379,87.9c-7.9,0-14.3-6.4-14.3-14.3c0-7.9,6.4-14.3,14.3-14.3
	s14.3,6.4,14.3,14.3c0,0,0,0,0,0C393.3,81.5,386.9,87.9,379,87.9C379,87.8,379,87.8,379,87.9z"/>
<path class="st1" d="M168.6,59.1h-23.5v-6.5h36.8l-25.4,35.2h23.3v6.5h-36.5L168.6,59.1z"/>
<path class="st1" d="M190.7,52.6h31.2v6.6H198V70h20.9v6.6H198v11.2h23.9v6.6h-31.2V52.6z"/>
<path class="st1" d="M231.1,52.6h18.6c5.2,0,9.4,1.5,12,4.2c2.3,2.4,3.5,5.7,3.5,9v0.1c0,6.9-4.1,11-10,12.6l11.3,15.8h-8.6
	l-10.2-14.5h-9.2v14.5h-7.3V52.6z M249.1,73.3c5.2,0,8.6-2.7,8.6-7v-0.1c0-4.5-3.2-6.9-8.6-6.9h-10.7v14L249.1,73.3z"/>
<path class="st1" d="M321.6,52.6h31v6.7H329v11.4h21v6.7h-21v17h-7.3L321.6,52.6z"/>
<path class="st1" d="M417.4,73.1l-14.6-20.5h8.6l10.3,14.6l10.5-14.6h8.4l-14.7,20.5l15.3,21.2h-8.6l-10.9-15.2l-11.1,15.2h-8.4
	L417.4,73.1z"/>
<path class="st1" d="M456.1,61.7c-0.5,0-1.1-0.1-1.6-0.3c-0.5-0.2-0.9-0.5-1.2-0.8c-0.4-0.4-0.6-0.8-0.8-1.2c-0.4-1-0.4-2.1,0-3.1
	c0.2-0.5,0.5-0.9,0.8-1.2c0.4-0.3,0.8-0.6,1.2-0.8c1-0.4,2.1-0.4,3.2,0c0.5,0.2,0.9,0.5,1.2,0.8c0.4,0.3,0.6,0.8,0.8,1.2
	c0.4,1,0.4,2.1,0,3.1c-0.2,0.5-0.5,0.9-0.8,1.2c-0.4,0.4-0.8,0.6-1.2,0.8C457.1,61.6,456.6,61.7,456.1,61.7z M456.1,61.4
	c0.5,0,1-0.1,1.4-0.3c0.4-0.2,0.8-0.4,1.1-0.7c0.3-0.3,0.6-0.7,0.8-1.1c0.2-0.5,0.3-1,0.3-1.5c0-0.5-0.1-1-0.3-1.4
	c-0.2-0.4-0.4-0.8-0.8-1.1c-0.3-0.3-0.7-0.6-1.2-0.8c-0.9-0.4-2-0.4-2.9,0c-0.4,0.2-0.8,0.4-1.2,0.8c-0.3,0.3-0.6,0.7-0.8,1.1
	c-0.2,0.5-0.3,0.9-0.3,1.4c0,0.5,0.1,1,0.3,1.4c0.2,0.4,0.4,0.8,0.8,1.1c0.3,0.3,0.7,0.6,1.2,0.8C455.1,61.3,455.6,61.4,456.1,61.4z
	 M454.4,55.3h2c0.2,0,0.4,0,0.6,0.1c0.2,0.1,0.3,0.2,0.5,0.3c0.1,0.2,0.2,0.3,0.3,0.5c0.1,0.2,0.1,0.4,0.1,0.5c0,0.2,0,0.4-0.1,0.5
	c-0.1,0.2-0.1,0.3-0.2,0.5c-0.1,0.1-0.2,0.3-0.4,0.3c-0.1,0.1-0.3,0.1-0.5,0.2l1.2,1.9h-0.5l-1.2-1.9h-1.4v1.9h-0.4L454.4,55.3z
	 M456.5,58c0.3,0,0.6-0.1,0.7-0.3c0.2-0.2,0.3-0.5,0.2-0.8c0-0.3-0.1-0.6-0.3-0.8c-0.2-0.2-0.5-0.3-0.7-0.3h-1.6V58H456.5z"/>
<g>
	<path class="st1" d="M281.6,82.7c-5.1-6-4.3-15,1.7-20.1c4-3.4,9.6-4.3,14.5-2.3l4-5.5c-10.3-5.1-22.8-0.9-28,9.5
		c-3.9,8-2.4,17.6,3.9,23.9L281.6,82.7z"/>
	<path class="st1" d="M307.4,58.9l-4,5.5c5.1,6,4.3,15-1.7,20.1c-4,3.4-9.6,4.3-14.5,2.3l-4,5.5c10.3,5.1,22.8,0.9,28-9.5
		C315.2,74.8,313.6,65.2,307.4,58.9L307.4,58.9z"/>
</g>
<rect x="143.2" y="121.9" class="st2" width="43.1" height="0.7"/>
<g class="st3">
</g>
<g class="st3">
	<path class="st4" d="M215.4,104.3h1.6l4.3,11.8h-1.7l-1.3-3.6h-4.4l-1.4,3.6h-1.7L215.4,104.3z M217.9,111.1l-1.7-4.8l-1.8,4.8
		H217.9z"/>
	<path class="st4" d="M229.5,104.3h1.6v10.4h5.9v1.4h-7.5L229.5,104.3z"/>
	<path class="st4" d="M245.1,104.3h5.5c0.9-0.1,1.8,0.2,2.6,0.8c0.7,0.7,1.1,1.6,1,2.6c0,1-0.3,1.9-1,2.6c-0.8,0.6-1.7,0.9-2.7,0.8
		h-3.7v5h-1.6L245.1,104.3z M250.3,109.6c0.6,0.1,1.3-0.1,1.7-0.6c0.3-0.4,0.5-0.9,0.5-1.4c0-1.3-0.7-1.9-2.1-1.9h-3.6v3.9H250.3z"
		/>
	<path class="st4" d="M262.6,104.3h1.6v5h6.6v-5h1.6v11.8h-1.6v-5.4h-6.6v5.4h-1.6V104.3z"/>
	<path class="st4" d="M285.1,104.3h1.6l4.3,11.8h-1.7l-1.3-3.6h-4.4l-1.4,3.6h-1.7L285.1,104.3z M287.6,111.1l-1.7-4.8l-1.8,4.8
		H287.6z"/>
	<path class="st4" d="M312.5,105.7h-3.7v-1.4h8.9v1.4h-3.6v10.4h-1.6V105.7z"/>
	<path class="st4" d="M325.8,104.3h8.4v1.4h-6.8v3.6h5.9v1.4h-5.9v3.9h7v1.4h-8.7L325.8,104.3z"/>
	<path class="st4" d="M346.9,104.3h1.6l4.3,11.8h-1.7l-1.3-3.6h-4.4l-1.4,3.6h-1.7L346.9,104.3z M349.3,111.1l-1.7-4.8l-1.8,4.8
		H349.3z"/>
	<path class="st4" d="M360.9,104.3h2.1l3.5,9.5l3.4-9.5h2.1v11.8h-1.5v-9.2l-3.4,9.2h-1.3l-3.4-9.2v9.2h-1.5L360.9,104.3z"/>
</g>
<rect x="399.9" y="121.5" class="st2" width="42.8" height="0.6"/>
<g class="st3">
</g>
<text transform="matrix(1 0 0 1 194.5155 129.1904)" class="st5 st6 st7 st8">THREAT FEED</text>
</svg>
